<svg width="4096" height="1119" viewBox="0 0 4096 1119" fill="none" xmlns="http://www.w3.org/2000/svg">
<path d="M0 300C0 134.315 134.315 0 300 0H4096V819C4096 984.685 3961.69 1119 3796 1119H0V300Z" fill="#4E9997"/>
<path d="M576.635 672H716.912V629.949H624.785V453.72H576.635V672Z" fill="white"/>
<path d="M742.777 672H895.573V630.591H790.927V581.478H876.313V540.39H790.927V495.129H892.363V453.72H742.777V672Z" fill="white"/>
<path d="M907.744 672H956.536L970.339 628.023H1039.03L1052.84 672H1103.87L1030.69 453.72H980.932L907.744 672ZM982.216 587.898L1004.69 508.29L1027.16 587.898H982.216Z" fill="white"/>
<path d="M1128.67 672H1176.82V591.429H1202.82L1246.15 672H1301.04L1253.86 586.935C1281.14 578.91 1292.7 558.366 1292.7 522.735C1292.7 473.943 1271.51 453.72 1217.9 453.72H1128.67V672ZM1176.82 550.341V494.808H1212.77C1236.2 494.808 1244.55 502.833 1244.55 522.735C1244.55 542.316 1236.2 550.341 1212.77 550.341H1176.82Z" fill="white"/>
<path d="M1331.8 672H1377.38V524.982L1456.67 672H1502.57V453.72H1456.99V591.429L1382.84 453.72H1331.8V672Z" fill="white"/>
<path d="M1556.06 672H1584.95V573.774H1690.56V672H1719.45V453.72H1690.56V546.81H1584.95V453.72H1556.06V672Z" fill="white"/>
<path d="M1851.82 675.852C1907.03 675.852 1930.46 653.061 1930.46 600.096V453.72H1902.54V599.775C1902.54 636.048 1889.06 649.53 1852.14 649.53C1815.55 649.53 1802.06 636.048 1802.06 599.775V453.72H1773.17V600.096C1773.17 653.061 1796.61 675.852 1851.82 675.852Z" fill="white"/>
<path d="M1983.96 672H2011.89V496.092L2118.46 672H2146.71V453.72H2118.78V619.677L2018.31 453.72H1983.96V672Z" fill="white"/>
<path d="M2243.14 672H2272.03V480.363H2336.55V453.72H2178.62V480.363H2243.14V672Z" fill="white"/>
<path d="M2368.28 672H2397.17V453.72H2368.28V672Z" fill="white"/>
<path d="M2456.37 672H2484.3V496.092L2590.87 672H2619.12V453.72H2591.19V619.677L2490.72 453.72H2456.37V672Z" fill="white"/>
<path d="M2752.78 675.852C2806.71 675.852 2833.67 647.925 2833.67 592.392V553.872H2758.88V580.515H2805.43V592.392C2805.43 632.196 2789.38 649.53 2753.1 649.53C2715.22 649.53 2697.89 630.591 2697.89 589.824V535.896C2697.89 495.771 2715.22 476.19 2751.18 476.19C2784.56 476.19 2801.57 492.882 2803.18 521.13H2831.43C2829.5 474.585 2800.29 449.868 2751.5 449.868C2697.89 449.868 2669 479.721 2669 534.291V591.429C2669 646.641 2697.89 675.852 2752.78 675.852Z" fill="white"/>
<path d="M2873.89 672H2906.63V639.258H2873.89V672Z" fill="white"/>
<path d="M3031.8 675.852C3088.62 675.852 3116.54 646.641 3116.54 588.861V536.859C3116.54 479.079 3088.62 449.868 3031.8 449.868C2974.98 449.868 2947.05 479.079 2947.05 536.859V588.861C2947.05 646.641 2974.98 675.852 3031.8 675.852ZM3031.8 649.53C2993.28 649.53 2975.94 630.591 2975.94 588.861V536.859C2975.94 495.129 2993.28 476.19 3031.8 476.19C3070.32 476.19 3087.65 495.129 3087.65 536.859V588.861C3087.65 630.591 3070.32 649.53 3031.8 649.53Z" fill="white"/>
<path d="M3166.39 672H3195.28V583.404H3243.11L3295.11 672H3328.5L3275.21 581.478C3306.99 575.379 3320.47 555.798 3320.47 518.562C3320.47 472.659 3299.93 453.72 3250.17 453.72H3166.39V672ZM3195.28 557.082V480.042H3247.61C3280.35 480.042 3291.58 490.635 3291.58 518.562C3291.58 546.489 3280.35 557.082 3247.61 557.082H3195.28Z" fill="white"/>
<path d="M3443.37 675.852C3497.3 675.852 3524.26 647.925 3524.26 592.392V553.872H3449.47V580.515H3496.01V592.392C3496.01 632.196 3479.96 649.53 3443.69 649.53C3405.81 649.53 3388.48 630.591 3388.48 589.824V535.896C3388.48 495.771 3405.81 476.19 3441.77 476.19C3475.15 476.19 3492.16 492.882 3493.77 521.13H3522.02C3520.09 474.585 3490.88 449.868 3442.09 449.868C3388.48 449.868 3359.59 479.721 3359.59 534.291V591.429C3359.59 646.641 3388.48 675.852 3443.37 675.852Z" fill="white"/>
</svg>
